# xmcd
#
# Track frame offsets:
#	182
#	16140
#	39837
#	57600
#	77215
#	92807
#	106395
#	127132
#	144355
#	161185
#	179115
#	198115
#	217925
#	234400
#	251480
#	267550
#	281380
#
# Disc length: 3954 seconds
# Revision: 0
# Processed by: cddbd v1.5.2PL0 Copyright (c) Steve Scherf et al.
# Submitted via: dBpowerAMP V12.0
#
DISCID=f40f7011
DTITLE=Clube do Camelo - Clube do Camelo
DYEAR=1995
DGENRE=Brazil
TTITLE0=Hino do Clube do Camelo (Clube do Camelo)
TTITLE1=Silêncio (Almir Morisson)
TTITLE2=Na Dança do Boi (Almir Morisson e Firmino Sousa Filho)
TTITLE3=Uísque com Mel (Firmino Sousa Filho e Eduardo Queiróz)
TTITLE4=Fado Antigo (Almir Morisson)
TTITLE5=Vou Me Queixar de Que? (Edyr Proença)
TTITLE6=Estrela Guia (Pepê Ayres)
TTITLE7=Grudando no Coração (Almir Morisson)
TTITLE8=Ramas (Samar) (Gervásio Cavalcante
TTITLE9=Por Essas e Outras (Almir Morisson)
TTITLE10=Ausência (Almir Morisson)
TTITLE11=Tudo Bem (Edyr Proença e José Maranhão)
TTITLE12=Saudade Caiapó (Raimundo Dantas e Jaceli Duarte)
TTITLE13=Bom Dia (Agostinho Barros)
TTITLE14=Foi Adeus (Edyr Proença)
TTITLE15=Fogo de Palha (Pepê Ayres )
TTITLE16=Choro Bom (Jaceli Duarte)
EXTD=
EXTT0=
EXTT1=
EXTT2=
EXTT3=
EXTT4=
EXTT5=
EXTT6=
EXTT7=
EXTT8=
EXTT9=
EXTT10=
EXTT11=
EXTT12=
EXTT13=
EXTT14=
EXTT15=
EXTT16=
PLAYORDER=
